<?xml version="1.0" encoding="UTF-8" standalone="no"?>
<svg
   xmlns:dc="http://purl.org/dc/elements/1.1/"
   xmlns:cc="http://creativecommons.org/ns#"
   xmlns:rdf="http://www.w3.org/1999/02/22-rdf-syntax-ns#"
   xmlns:svg="http://www.w3.org/2000/svg"
   xmlns="http://www.w3.org/2000/svg"
   xmlns:xlink="http://www.w3.org/1999/xlink"
   id="svg8"
   version="1.1"
   viewBox="0 0 262.82577 35.754977"
   height="135.13692"
   width="993.35724">
  <defs
     id="defs2">
    <linearGradient
       spreadMethod="pad"
       y2="0"
       y1="0"
       gradientUnits="userSpaceOnUse"
       gradientTransform="matrix(106.8057,-78.916731,78.916731,106.8057,235.18824,285.39477)"
       x2="0.58200002"
       x1="-0.456"
       id="linearGradient1249">
      <stop
         style="stop-color:#8b8b8b;stop-opacity:1"
         id="stop1243"
         stop-color="#3E863D"
         offset=".57" />
      <stop
         style="stop-color:#948e8e;stop-opacity:1"
         id="stop1245"
         stop-color="#619857"
         offset=".72" />
      <stop
         style="stop-color:#a6a6a6;stop-opacity:1"
         id="stop1247"
         stop-color="#76AC64"
         offset="1" />
    </linearGradient>
    <linearGradient
       spreadMethod="pad"
       y2="0"
       y1="0"
       gradientUnits="userSpaceOnUse"
       gradientTransform="matrix(106.8057,-78.916731,78.916731,106.8057,235.18824,285.39477)"
       x2="0.58200002"
       x1="-0.456"
       id="linearGradient1241">
      <stop
         style="stop-color:#b3b3b3;stop-opacity:1"
         id="stop1235"
         stop-color="#3E863D"
         offset=".57" />
      <stop
         style="stop-color:#a5a5a5;stop-opacity:1"
         id="stop1237"
         stop-color="#619857"
         offset=".72" />
      <stop
         style="stop-color:#e4e4e4;stop-opacity:1"
         id="stop1239"
         stop-color="#76AC64"
         offset="1" />
    </linearGradient>
    <linearGradient
       spreadMethod="pad"
       y2="0"
       y1="0"
       gradientUnits="userSpaceOnUse"
       gradientTransform="matrix(106.8057,-78.916731,78.916731,106.8057,235.18824,285.39477)"
       x2="0.58200002"
       x1="-0.456"
       id="linearGradient1083">
      <stop
         style="stop-color:#626262;stop-opacity:1"
         id="stop1077"
         stop-color="#3E863D"
         offset=".57" />
      <stop
         id="stop1079"
         stop-color="#619857"
         offset=".72" />
      <stop
         id="stop1081"
         stop-color="#76AC64"
         offset="1" />
    </linearGradient>
    <linearGradient
       spreadMethod="pad"
       y2="0"
       y1="0"
       gradientUnits="userSpaceOnUse"
       gradientTransform="matrix(106.8057,-78.916731,78.916731,106.8057,235.18824,285.39477)"
       x2="0.58200002"
       x1="-0.456"
       id="linearGradient1075">
      <stop
         style="stop-color:#5d675d;stop-opacity:1"
         id="stop1069"
         stop-color="#3E863D"
         offset=".57" />
      <stop
         id="stop1071"
         stop-color="#619857"
         offset=".72" />
      <stop
         id="stop1073"
         stop-color="#76AC64"
         offset="1" />
    </linearGradient>
    <linearGradient
       spreadMethod="pad"
       y2="0"
       y1="0"
       gradientUnits="userSpaceOnUse"
       gradientTransform="matrix(106.8057,-78.916731,78.916731,106.8057,235.18824,285.39477)"
       x2="0.58200002"
       x1="-0.456"
       id="linearGradient1067">
      <stop
         style="stop-color:#50744f;stop-opacity:1"
         id="stop1061"
         stop-color="#3E863D"
         offset=".57" />
      <stop
         id="stop1063"
         stop-color="#619857"
         offset=".72" />
      <stop
         id="stop1065"
         stop-color="#76AC64"
         offset="1" />
    </linearGradient>
    <linearGradient
       spreadMethod="pad"
       y2="0"
       y1="0"
       gradientUnits="userSpaceOnUse"
       gradientTransform="matrix(106.8057,-78.916731,78.916731,106.8057,235.18824,285.39477)"
       x2="0.58200002"
       x1="-0.456"
       id="linearGradient1059">
      <stop
         style="stop-color:#4d774d;stop-opacity:1"
         id="stop1053"
         stop-color="#3E863D"
         offset=".57" />
      <stop
         id="stop1055"
         stop-color="#619857"
         offset=".72" />
      <stop
         id="stop1057"
         stop-color="#76AC64"
         offset="1" />
    </linearGradient>
    <linearGradient
       spreadMethod="pad"
       y2="0"
       y1="0"
       gradientUnits="userSpaceOnUse"
       gradientTransform="matrix(106.8057,-78.916731,78.916731,106.8057,235.18824,285.39477)"
       x2="0.58200002"
       x1="-0.456"
       id="linearGradient1051">
      <stop
         style="stop-color:#438043;stop-opacity:1"
         id="stop1045"
         stop-color="#3E863D"
         offset=".57" />
      <stop
         id="stop1047"
         stop-color="#619857"
         offset=".72" />
      <stop
         id="stop1049"
         stop-color="#76AC64"
         offset="1" />
    </linearGradient>
    <linearGradient
       spreadMethod="pad"
       y2="0"
       y1="0"
       gradientUnits="userSpaceOnUse"
       gradientTransform="matrix(106.8057,-78.916731,78.916731,106.8057,235.18824,285.39477)"
       x2="0.58200002"
       x1="-0.456"
       id="linearGradient1043">
      <stop
         style="stop-color:#438142;stop-opacity:1"
         id="stop1037"
         stop-color="#3E863D"
         offset=".57" />
      <stop
         id="stop1039"
         stop-color="#619857"
         offset=".72" />
      <stop
         id="stop1041"
         stop-color="#76AC64"
         offset="1" />
    </linearGradient>
    <linearGradient
       spreadMethod="pad"
       y2="0"
       y1="0"
       gradientUnits="userSpaceOnUse"
       gradientTransform="matrix(106.8057,-78.916731,78.916731,106.8057,235.18824,285.39477)"
       x2="0.58200002"
       x1="-0.456"
       id="linearGradient1035">
      <stop
         id="stop1029"
         stop-color="#3E863D"
         offset=".57" />
      <stop
         style="stop-color:#6f846b;stop-opacity:1"
         id="stop1031"
         stop-color="#619857"
         offset=".72" />
      <stop
         id="stop1033"
         stop-color="#76AC64"
         offset="1" />
    </linearGradient>
    <linearGradient
       spreadMethod="pad"
       y2="0"
       y1="0"
       gradientUnits="userSpaceOnUse"
       gradientTransform="matrix(106.8057,-78.916731,78.916731,106.8057,235.18824,285.39477)"
       x2="0.58200002"
       x1="-0.456"
       id="linearGradient1027">
      <stop
         id="stop1021"
         stop-color="#3E863D"
         offset=".57" />
      <stop
         style="stop-color:#65925d;stop-opacity:1"
         id="stop1023"
         stop-color="#619857"
         offset=".72" />
      <stop
         id="stop1025"
         stop-color="#76AC64"
         offset="1" />
    </linearGradient>
    <linearGradient
       spreadMethod="pad"
       y2="0"
       y1="0"
       gradientUnits="userSpaceOnUse"
       gradientTransform="matrix(106.8057,-78.916731,78.916731,106.8057,235.18824,285.39477)"
       x2="0.58200002"
       x1="-0.456"
       id="linearGradient1019">
      <stop
         id="stop1013"
         stop-color="#3E863D"
         offset=".57" />
      <stop
         style="stop-color:#64935c;stop-opacity:1"
         id="stop1015"
         stop-color="#619857"
         offset=".72" />
      <stop
         id="stop1017"
         stop-color="#76AC64"
         offset="1" />
    </linearGradient>
    <linearGradient
       spreadMethod="pad"
       y2="0"
       y1="0"
       gradientUnits="userSpaceOnUse"
       gradientTransform="matrix(106.8057,-78.916731,78.916731,106.8057,235.18824,285.39477)"
       x2="0.58200002"
       x1="-0.456"
       id="linearGradient1011">
      <stop
         id="stop1005"
         stop-color="#3E863D"
         offset=".57" />
      <stop
         id="stop1007"
         stop-color="#619857"
         offset=".72" />
      <stop
         style="stop-color:#82947c;stop-opacity:1"
         id="stop1009"
         stop-color="#76AC64"
         offset="1" />
    </linearGradient>
    <linearGradient
       spreadMethod="pad"
       y2="0"
       y1="0"
       gradientUnits="userSpaceOnUse"
       gradientTransform="matrix(106.8057,-78.916731,78.916731,106.8057,235.18824,285.39477)"
       x2="0.58200002"
       x1="-0.456"
       id="linearGradient1003">
      <stop
         id="stop997"
         stop-color="#3E863D"
         offset=".57" />
      <stop
         id="stop999"
         stop-color="#619857"
         offset=".72" />
      <stop
         style="stop-color:#79a66a;stop-opacity:1"
         id="stop1001"
         stop-color="#76AC64"
         offset="1" />
    </linearGradient>
    <linearGradient
       gradientUnits="userSpaceOnUse"
       gradientTransform="matrix(106.8057,-78.916731,78.916731,106.8057,235.18824,285.39477)"
       x2="0.58200002"
       x1="-0.456"
       id="linearGradient995">
      <stop
         id="stop989"
         stop-color="#3E863D"
         offset=".57" />
      <stop
         id="stop991"
         stop-color="#619857"
         offset=".72" />
      <stop
         style="stop-color:#79a769;stop-opacity:1"
         id="stop993"
         stop-color="#76AC64"
         offset="1" />
    </linearGradient>
    <clipPath
       id="a">
      <path
         d="m 239.03,226.605 -42.13,24.317 c -1.578,0.91 -2.546,2.59 -2.546,4.406 v 48.668 c 0,1.817 0.968,3.496 2.546,4.406 l 42.133,24.336 c 1.575,0.907 3.517,0.907 5.09,0 l 42.126,-24.336 c 1.57,-0.91 2.54,-2.59 2.54,-4.406 v -48.668 c 0,-1.816 -0.97,-3.496 -2.55,-4.406 l -42.12,-24.317 c -0.79,-0.453 -1.67,-0.68 -2.55,-0.68 -0.88,0 -1.76,0.227 -2.55,0.68"
         id="path849" />
    </clipPath>
    <linearGradient
       id="b"
       x1="-0.34799999"
       x2="1.251"
       gradientTransform="matrix(-38.064915,77.652126,-77.652126,-38.064915,258.72325,244.62943)"
       gradientUnits="userSpaceOnUse">
      <stop
         offset=".3"
         stop-color="#3E863D"
         id="stop852" />
      <stop
         offset=".5"
         stop-color="#55934F"
         id="stop854" />
      <stop
         offset=".8"
         stop-color="#5AAD45"
         id="stop856" />
    </linearGradient>
    <clipPath
       id="c">
      <path
         d="m 195.398,307.086 c 0.403,0.523 0.907,0.976 1.5,1.316 l 36.14,20.875 6.02,3.46 c 0.9,0.52 1.926,0.74 2.934,0.665 0.336,-0.027 0.672,-0.09 1,-0.183 l 44.434,-81.36 c -0.34,-0.37 -0.738,-0.68 -1.184,-0.94 l -27.586,-15.93 -14.582,-8.39 c -0.414,-0.24 -0.863,-0.41 -1.32,-0.53 z m 0,0"
         id="path859" />
    </clipPath>
    <linearGradient
       xlink:href="#linearGradient1083"
       id="d"
       x1="-0.456"
       x2="0.58200002"
       gradientTransform="matrix(106.8057,-78.916731,78.916731,106.8057,235.18824,285.39477)"
       gradientUnits="userSpaceOnUse">
      <stop
         offset=".57"
         stop-color="#3E863D"
         id="stop862" />
      <stop
         offset=".72"
         stop-color="#619857"
         id="stop864" />
      <stop
         offset="1"
         stop-color="#76AC64"
         id="stop866" />
    </linearGradient>
    <clipPath
       id="e">
      <path
         d="m 241.066,225.953 c -0.707,0.07 -1.398,0.29 -2.035,0.652 l -42.01,24.247 45.3,82.51 c 0.63,-0.09 1.25,-0.3 1.81,-0.624 l 42.13,-24.336 c 1.3,-0.754 2.19,-2.03 2.46,-3.476 l -46.18,-78.89 c -0.34,-0.067 -0.68,-0.102 -1.03,-0.102 -0.14,0 -0.28,0.007 -0.42,0.02"
         id="path869" />
    </clipPath>
    <linearGradient
       xlink:href="#d"
       id="f"
       x1="0.043000001"
       x2="0.98400003"
       gradientTransform="matrix(97.417,0,0,97.417,192.862,279.652)"
       gradientUnits="userSpaceOnUse">
      <stop
         style="stop-color:#fefefe;stop-opacity:1"
         offset=".16"
         stop-color="#6BBF47"
         id="stop872" />
      <stop
         style="stop-color:#d3d3d3;stop-opacity:1"
         offset=".38"
         stop-color="#79B461"
         id="stop874" />
      <stop
         style="stop-color:#c9c9c9;stop-opacity:1"
         offset=".47"
         stop-color="#75AC64"
         id="stop876" />
      <stop
         style="stop-color:#bfc2bf;stop-opacity:1"
         offset=".7"
         stop-color="#659E5A"
         id="stop878" />
      <stop
         style="stop-color:#a6a3a3;stop-opacity:1"
         offset=".9"
         stop-color="#3E863D"
         id="stop880" />
    </linearGradient>
    <linearGradient
       x2="1.251"
       x1="-0.34799999"
       gradientTransform="matrix(-38.064915,77.652126,-77.652126,-38.064915,258.72325,244.62943)"
       gradientUnits="userSpaceOnUse"
       id="linearGradient1085"
       xlink:href="#linearGradient1249" />
    <linearGradient
       x2="0.58200002"
       x1="-0.456"
       gradientTransform="matrix(106.8057,-78.916731,78.916731,106.8057,235.18824,285.39477)"
       gradientUnits="userSpaceOnUse"
       id="linearGradient1225"
       xlink:href="#linearGradient1241" />
  </defs>
  <metadata
     id="metadata5">
    <rdf:RDF>
      <cc:Work
         rdf:about="">
        <dc:format>image/svg+xml</dc:format>
        <dc:type
           rdf:resource="http://purl.org/dc/dcmitype/StillImage" />
        <dc:title></dc:title>
      </cc:Work>
    </rdf:RDF>
  </metadata>
  <g
     transform="translate(-0.94402075,-9.6099386)"
     id="layer1">
    <rect
       ry="17.877487"
       y="9.6099386"
       x="0.94402075"
       height="35.754974"
       width="262.82578"
       id="rect970"
       style="opacity:1;fill:#1a1a1a;fill-opacity:1;stroke-width:0.1159656" />
    <path
       style="fill:#ffffff;stroke-width:0.08538502"
       d="m 91.697618,30.521199 v -4.865502 h 6.07463 v -0.284581 h -6.07463 v -4.438487 h 6.458693 v -0.284497 h -6.743199 v 10.157394 h 6.800066 v -0.284327 h -6.515476 z m 11.992752,-7.02804 -2.518,3.314647 -2.461227,-3.314647 h -0.369887 l 2.660344,3.528111 -2.916415,3.784256 h 0.341538 l 2.745647,-3.570801 2.75989,3.570801 h 0.35555 l -2.93058,-3.784256 2.67451,-3.528111 z m 1.45104,9.816114 v -4.552129 h 0.0285 c 0.17076,0.663781 0.50744,1.197264 1.01009,1.600372 0.50267,0.403013 1.1428,0.604524 1.9205,0.604524 0.50266,0 0.94845,-0.101862 1.33728,-0.305681 0.38885,-0.204063 0.71366,-0.481402 0.97451,-0.832335 0.26086,-0.350933 0.46005,-0.758732 0.5977,-1.223566 0.13746,-0.464493 0.2062,-0.953063 0.2062,-1.465201 0,-0.550052 -0.0712,-1.057501 -0.21347,-1.522164 -0.14224,-0.464749 -0.34854,-0.867846 -0.61879,-1.209218 -0.27031,-0.341543 -0.59751,-0.607087 -0.98166,-0.796646 -0.38398,-0.189727 -0.81799,-0.284591 -1.30161,-0.284591 -0.36988,0 -0.71365,0.05466 -1.03145,0.163598 -0.31763,0.10904 -0.59974,0.262993 -0.84633,0.462281 -0.24659,0.199204 -0.46006,0.433929 -0.64022,0.704163 -0.18017,0.270415 -0.31764,0.566792 -0.41259,0.889286 h -0.0284 V 23.49333 h -0.28434 v 9.816114 h 0.28434 z m 2.9591,-2.617648 c -0.89142,0 -1.60755,-0.305852 -2.14812,-0.917544 -0.54048,-0.611702 -0.8109,-1.491428 -0.8109,-2.638995 0,-0.474235 0.0666,-0.924722 0.19929,-1.351471 0.13278,-0.426761 0.32481,-0.801431 0.57609,-1.123842 0.25146,-0.322505 0.56209,-0.578574 0.93189,-0.768206 0.36989,-0.189728 0.78725,-0.284592 1.25192,-0.284592 0.47423,0 0.88919,0.09476 1.24491,0.284592 0.35554,0.189547 0.64961,0.448094 0.88203,0.775289 0.23224,0.327196 0.40771,0.701866 0.52631,1.123841 0.11851,0.42206 0.17777,0.87008 0.17777,1.344389 0,0.42692 -0.0544,0.851288 -0.16359,1.273262 -0.10905,0.422059 -0.2775,0.80142 -0.50506,1.138177 -0.22746,0.336586 -0.51913,0.611618 -0.87477,0.825083 -0.35571,0.213454 -0.78485,0.320017 -1.2876,0.320017 z m 4.68047,0.113815 v -4.139548 c 0,-0.398323 0.0568,-0.787254 0.17076,-1.166529 0.11373,-0.379361 0.2892,-0.71382 0.52632,-1.002932 0.23712,-0.289452 0.53819,-0.517008 0.90338,-0.683084 0.3651,-0.165906 0.79902,-0.23464 1.30169,-0.206202 v -0.284507 c -0.43632,-0.0095 -0.818,0.03786 -1.14502,0.142253 -0.32737,0.104117 -0.60948,0.246508 -0.84659,0.426761 -0.23712,0.180156 -0.42676,0.391058 -0.56901,0.633037 -0.14225,0.241817 -0.2465,0.500365 -0.31293,0.7753 h -0.0284 v -1.806745 h -0.2845 v 7.312367 h 0.2845 z m 3.25778,-3.599142 h 6.11724 c 0.0189,-0.502662 -0.0309,-0.986203 -0.14944,-1.451036 -0.1185,-0.464749 -0.30822,-0.877333 -0.569,-1.237657 -0.26086,-0.360494 -0.59753,-0.649775 -1.01009,-0.867941 -0.41259,-0.218155 -0.90338,-0.327196 -1.47238,-0.327196 -0.40789,0 -0.80622,0.0854 -1.19506,0.256154 -0.38885,0.170776 -0.73029,0.419581 -1.02428,0.746788 -0.29398,0.327015 -0.53109,0.727815 -0.71125,1.20204 -0.18017,0.474234 -0.27034,1.0148 -0.27034,1.621812 0,0.540481 0.0617,1.045621 0.18495,1.51507 0.1233,0.469438 0.31294,0.877332 0.569,1.223565 0.25616,0.346062 0.58574,0.613914 0.98877,0.803642 0.40301,0.189726 0.88911,0.279808 1.45821,0.270331 0.83454,0 1.53641,-0.23481 2.10542,-0.704173 0.56909,-0.46962 0.90576,-1.131009 1.0101,-1.984604 h -0.28451 c -0.12329,0.806205 -0.4387,1.410814 -0.94607,1.813837 -0.50743,0.403013 -1.14518,0.604525 -1.91347,0.604525 -0.5217,0 -0.96262,-0.08997 -1.32303,-0.270161 -0.36034,-0.180156 -0.65441,-0.426919 -0.88204,-0.739779 -0.22754,-0.313105 -0.39592,-0.680512 -0.50497,-1.102656 -0.10928,-0.421974 -0.16845,-0.87963 -0.17793,-1.372816 z m 5.83264,-0.284507 h -5.83264 c 0.0284,-0.512138 0.12329,-0.972111 0.28449,-1.379825 0.16138,-0.407968 0.37228,-0.756508 0.63314,-1.045705 0.26077,-0.289452 0.5644,-0.509915 0.91046,-0.661729 0.34615,-0.151645 0.71843,-0.227557 1.11684,-0.227557 0.47414,0 0.89142,0.08774 1.25174,0.263236 0.36049,0.175467 0.66157,0.414978 0.90338,0.718436 0.24189,0.303458 0.42435,0.656784 0.54774,1.059796 0.12338,0.403024 0.18503,0.827551 0.18503,1.273262 z m 6.18855,-1.266094 h 0.2845 c 0,-0.815682 -0.23712,-1.408423 -0.71126,-1.778307 -0.47432,-0.369714 -1.11923,-0.554752 -1.93483,-0.554752 -0.45527,0 -0.83934,0.057 -1.15235,0.170777 -0.31294,0.11373 -0.569,0.260759 -0.76821,0.440925 -0.19912,0.180168 -0.34137,0.379372 -0.42676,0.597527 -0.0854,0.218155 -0.12808,0.42692 -0.12808,0.625868 0,0.398408 0.0711,0.716128 0.21347,0.953245 0.14225,0.237022 0.36511,0.421975 0.66857,0.554742 0.20867,0.09476 0.4457,0.180167 0.71125,0.256154 0.26555,0.07582 0.57379,0.15643 0.92471,0.241637 0.31303,0.07604 0.62127,0.151985 0.92473,0.227727 0.30354,0.07605 0.57148,0.177859 0.80382,0.305851 0.23225,0.128078 0.42197,0.291675 0.56901,0.490964 0.14685,0.198938 0.22046,0.459878 0.22046,0.782298 0,0.31302 -0.0734,0.578565 -0.22046,0.796635 -0.14704,0.218166 -0.33438,0.396015 -0.56184,0.533663 -0.22773,0.137468 -0.48158,0.236936 -0.76121,0.298588 -0.2799,0.06168 -0.55245,0.09252 -0.81799,0.09252 -0.86324,0 -1.52472,-0.19211 -1.98469,-0.576096 -0.45997,-0.384061 -0.68992,-0.988756 -0.68992,-1.813828 h -0.28458 c 0,0.920021 0.24898,1.593279 0.74687,2.020209 0.49796,0.42675 1.23535,0.64013 2.21232,0.64013 0.31285,0 0.62818,-0.0356 0.94589,-0.106732 0.31764,-0.07115 0.6023,-0.18725 0.8536,-0.34854 0.25137,-0.161205 0.45527,-0.369714 0.61169,-0.625868 0.15643,-0.256155 0.23465,-0.569099 0.23465,-0.938983 0,-0.350934 -0.0687,-0.63543 -0.20621,-0.853596 -0.13747,-0.21807 -0.31763,-0.398323 -0.54066,-0.540481 -0.22284,-0.142338 -0.47405,-0.253771 -0.75395,-0.334374 -0.27972,-0.08072 -0.56183,-0.158812 -0.84642,-0.234809 -0.39832,-0.104117 -0.74687,-0.194418 -1.04562,-0.270235 -0.29859,-0.07604 -0.57601,-0.165991 -0.83208,-0.270331 -0.24659,-0.104116 -0.4434,-0.25359 -0.59043,-0.44802 -0.14703,-0.194418 -0.22047,-0.471841 -0.22047,-0.83225 0,-0.06636 0.0189,-0.184942 0.0568,-0.355623 0.038,-0.170777 0.12808,-0.343765 0.27033,-0.519147 0.14225,-0.175466 0.36032,-0.331971 0.65439,-0.469619 0.29398,-0.137468 0.69708,-0.206202 1.20922,-0.206202 0.35093,0 0.67096,0.03796 0.96024,0.113816 0.28928,0.07603 0.53827,0.196811 0.74687,0.362886 0.20859,0.165906 0.36971,0.376894 0.48362,0.632963 0.11382,0.256153 0.17076,0.569173 0.17076,0.939068 z m 6.58659,0 h 0.28458 c 0,-0.815682 -0.23701,-1.408423 -0.71125,-1.778307 -0.47423,-0.369714 -1.11914,-0.554752 -1.93482,-0.554752 -0.4551,0 -0.83933,0.057 -1.15227,0.170777 -0.31302,0.11373 -0.5691,0.260759 -0.76822,0.440925 -0.19919,0.180168 -0.34153,0.379372 -0.42691,0.597527 -0.0852,0.218155 -0.12792,0.42692 -0.12792,0.625868 0,0.398408 0.0711,0.716128 0.21347,0.953245 0.14217,0.237022 0.36511,0.421975 0.66857,0.554742 0.20868,0.09476 0.4457,0.180167 0.71124,0.256154 0.26556,0.07582 0.57379,0.15643 0.92472,0.241637 0.31303,0.07604 0.62127,0.151985 0.92473,0.227727 0.30354,0.07605 0.5714,0.177859 0.80382,0.305851 0.23241,0.128078 0.42214,0.291675 0.5691,0.490964 0.14702,0.198938 0.22054,0.459878 0.22054,0.782298 0,0.31302 -0.0734,0.578565 -0.22054,0.796635 -0.14688,0.218166 -0.33429,0.396015 -0.56185,0.533663 -0.22772,0.137468 -0.48139,0.236936 -0.7612,0.298588 -0.27972,0.06168 -0.55245,0.09252 -0.81799,0.09252 -0.86307,0 -1.52455,-0.19211 -1.98452,-0.576096 -0.46006,-0.384061 -0.68991,-0.988756 -0.68991,-1.813828 h -0.2846 c 0,0.920021 0.24891,1.593279 0.74687,2.020209 0.4978,0.42675 1.23527,0.64013 2.21216,0.64013 0.31301,0 0.62843,-0.0356 0.94606,-0.106732 0.31764,-0.07115 0.60222,-0.18725 0.85359,-0.34854 0.25129,-0.161205 0.45511,-0.369714 0.61171,-0.625868 0.15659,-0.256155 0.2348,-0.569099 0.2348,-0.938983 0,-0.350934 -0.0687,-0.63543 -0.20629,-0.853596 -0.13747,-0.21807 -0.31763,-0.398323 -0.54049,-0.540481 -0.22285,-0.142338 -0.47431,-0.253771 -0.75411,-0.334374 -0.27972,-0.08072 -0.56184,-0.158812 -0.84643,-0.234809 -0.3984,-0.104117 -0.74694,-0.194418 -1.04571,-0.270235 -0.29883,-0.07604 -0.57618,-0.165991 -0.83224,-0.270331 -0.2466,-0.104116 -0.44341,-0.25359 -0.59036,-0.44802 -0.14703,-0.194418 -0.22054,-0.471841 -0.22054,-0.83225 0,-0.06636 0.0188,-0.184942 0.0568,-0.355623 0.038,-0.170777 0.12808,-0.343765 0.27024,-0.519147 0.14234,-0.175466 0.3605,-0.331971 0.65448,-0.469619 0.29405,-0.137468 0.69708,-0.206202 1.2093,-0.206202 0.35094,0 0.67097,0.03796 0.96025,0.113816 0.28928,0.07603 0.53818,0.196811 0.74686,0.362886 0.20876,0.165906 0.36996,0.376894 0.48378,0.632963 0.11383,0.256153 0.17078,0.569173 0.17078,0.939068 z"
       id="path815" />
    <g
       style="clip-rule:evenodd;fill:#ffffff;fill-opacity:1;fill-rule:evenodd"
       transform="matrix(0.23171922,0,0,0.23171922,37.826985,5.9598876)"
       id="g834">
      <path
         style="fill:#ffffff;fill-opacity:1"
         d="m 8.504,128.215 h 5.8 v -22.977 l 9.058,20.033 c 1.026,2.408 2.499,3.301 5.354,3.301 2.856,0 4.239,-0.893 5.31,-3.301 l 9.013,-20.033 v 22.977 h 5.845 v -22.977 c 0,-2.23 -0.893,-3.303 -2.767,-3.883 -4.417,-1.338 -7.362,-0.178 -8.7,2.811 l -8.878,19.811 -8.567,-19.811 c -1.294,-2.988 -4.284,-4.148 -8.745,-2.811 -1.829,0.58 -2.722,1.652 -2.722,3.883 v 22.977 z m 45.198,-18.694 h 5.845 v 12.627 c -0.044,0.713 0.223,2.32 3.391,2.363 1.651,0.045 12.582,0 12.671,0 v -15.08 h 5.845 v 20.658 c 0,5.086 -6.291,6.201 -9.236,6.246 H 53.835 v -3.881 h 18.427 c 3.748,-0.402 3.302,-2.275 3.302,-2.9 v -1.518 H 63.205 c -5.756,-0.045 -9.459,-2.588 -9.503,-5.488 0,-0.267 0.133,-12.939 0,-13.027 z M 179.076,94.886 c -3.568,-0.089 -6.336,0.268 -8.656,1.25 -0.668,0.269 -1.74,0.269 -1.828,1.116 0.357,0.355 0.4,0.936 0.713,1.428 0.535,0.893 1.473,2.096 2.32,2.721 0.938,0.715 1.875,1.428 2.855,2.053 1.74,1.07 3.703,1.695 5.398,2.766 0.982,0.625 1.963,1.428 2.945,2.098 0.49,0.357 0.803,0.938 1.428,1.16 v -0.135 c -0.312,-0.4 -0.402,-0.98 -0.713,-1.428 -0.447,-0.445 -0.893,-0.848 -1.34,-1.293 -1.293,-1.74 -2.9,-3.258 -4.641,-4.506 -1.428,-0.982 -4.551,-2.32 -5.131,-3.971 l -0.088,-0.09 c 0.98,-0.09 2.141,-0.447 3.078,-0.715 1.518,-0.4 2.9,-0.312 4.461,-0.713 0.715,-0.179 1.428,-0.402 2.143,-0.625 v -0.401 c -0.803,-0.803 -1.383,-1.874 -2.23,-2.632 -2.275,-1.963 -4.775,-3.882 -7.363,-5.488 -1.383,-0.892 -3.168,-1.473 -4.639,-2.23 -0.537,-0.268 -1.428,-0.402 -1.74,-0.848 -0.805,-0.981 -1.25,-2.275 -1.83,-3.436 -1.293,-2.454 -2.543,-5.175 -3.658,-7.763 -0.803,-1.74 -1.295,-3.48 -2.275,-5.086 -4.596,-7.585 -9.594,-12.181 -17.268,-16.687 -1.65,-0.937 -3.613,-1.339 -5.711,-1.829 -1.115,-0.045 -2.23,-0.134 -3.346,-0.179 -0.715,-0.312 -1.428,-1.16 -2.053,-1.562 -2.543,-1.606 -9.102,-5.086 -10.977,-0.491 -1.205,2.9 1.785,5.755 2.811,7.228 0.76,1.026 1.74,2.186 2.277,3.346 0.311,0.758 0.4,1.562 0.713,2.365 0.713,1.963 1.383,4.149 2.32,5.979 0.49,0.937 1.025,1.919 1.65,2.767 0.357,0.491 0.982,0.714 1.115,1.517 -0.625,0.893 -0.668,2.231 -1.025,3.347 -1.607,5.042 -0.982,11.288 1.293,14.991 0.715,1.115 2.41,3.569 4.686,2.632 2.008,-0.803 1.561,-3.346 2.141,-5.577 0.135,-0.535 0.045,-0.892 0.312,-1.249 v 0.089 c 0.625,1.249 1.25,2.454 1.83,3.703 1.383,2.186 3.793,4.462 5.801,5.979 1.07,0.803 1.918,2.187 3.256,2.677 v -0.135 h -0.088 c -0.268,-0.4 -0.67,-0.579 -1.027,-0.892 -0.803,-0.803 -1.695,-1.785 -2.32,-2.677 -1.873,-2.498 -3.523,-5.265 -4.996,-8.12 -0.715,-1.383 -1.34,-2.9 -1.918,-4.283 -0.27,-0.536 -0.27,-1.339 -0.715,-1.606 -0.67,0.981 -1.65,1.83 -2.143,3.034 -0.848,1.918 -0.936,4.283 -1.248,6.737 -0.18,0.045 -0.09,0 -0.18,0.089 -1.426,-0.356 -1.918,-1.829 -2.453,-3.078 -1.338,-3.168 -1.562,-8.254 -0.402,-11.913 0.312,-0.937 1.652,-3.882 1.117,-4.774 -0.27,-0.848 -1.16,-1.338 -1.652,-2.008 -0.58,-0.848 -1.203,-1.918 -1.605,-2.855 -1.07,-2.499 -1.605,-5.265 -2.766,-7.764 -0.537,-1.16 -1.473,-2.365 -2.232,-3.435 -0.848,-1.205 -1.783,-2.053 -2.453,-3.48 -0.223,-0.491 -0.535,-1.294 -0.178,-1.829 0.088,-0.357 0.268,-0.491 0.623,-0.58 0.58,-0.491 2.232,0.134 2.812,0.401 1.65,0.669 3.033,1.294 4.416,2.23 0.625,0.446 1.295,1.294 2.098,1.518 h 0.938 c 1.428,0.312 3.033,0.089 4.371,0.49 2.365,0.759 4.506,1.874 6.426,3.079 5.844,3.703 10.664,8.968 13.92,15.259 0.535,1.026 0.758,1.963 1.25,3.034 0.938,2.187 2.098,4.417 3.033,6.559 0.938,2.097 1.83,4.239 3.168,5.979 0.67,0.937 3.346,1.427 4.551,1.918 0.893,0.401 2.275,0.759 3.08,1.249 1.516,0.937 3.033,2.008 4.461,3.034 0.713,0.534 2.945,1.649 3.078,2.541 z"
         id="path828" />
      <path
         style="fill:#ffffff;fill-opacity:1"
         d="m 133.566,56.114 c -0.758,0 -1.293,0.089 -1.828,0.223 v 0.089 h 0.088 c 0.357,0.714 0.982,1.205 1.428,1.829 0.357,0.714 0.67,1.428 1.027,2.142 l 0.088,-0.089 c 0.625,-0.446 0.938,-1.16 0.938,-2.231 -0.268,-0.312 -0.312,-0.625 -0.535,-0.937 -0.268,-0.446 -0.848,-0.669 -1.206,-1.026 z"
         id="path830" />
      <path
         style="fill:#ffffff;fill-opacity:1"
         d="m 85.916,128.215 h 16.776 c 1.963,0 3.838,-0.4 5.354,-1.115 2.543,-1.16 3.748,-2.721 3.748,-4.773 v -4.283 c 0,-1.65 -1.383,-3.213 -4.148,-4.283 -1.428,-0.535 -3.213,-0.848 -4.953,-0.848 h -7.049 c -2.365,0 -3.48,-0.715 -3.793,-2.275 -0.044,-0.178 -0.044,-0.357 -0.044,-0.535 v -2.633 c 0,-0.135 0,-0.312 0.044,-0.49 0.312,-1.205 0.937,-1.518 2.99,-1.74 h 17.177 v -3.883 H 95.687 c -2.365,0 -3.614,0.135 -4.729,0.492 -3.436,1.07 -4.953,2.766 -4.953,5.754 v 3.393 c 0,2.631 2.945,4.863 7.942,5.398 0.535,0.045 1.115,0.045 1.695,0.045 h 6.024 c 0.223,0 0.445,0 0.623,0.045 1.83,0.178 2.633,0.49 3.168,1.158 0.357,0.357 0.447,0.67 0.447,1.072 v 3.391 c 0,0.4 -0.268,0.938 -0.803,1.383 -0.537,0.445 -1.385,0.758 -2.5,0.803 -0.223,0 -0.355,0.045 -0.58,0.045 H 85.916 Z m 62.195,-6.736 c 0,3.971 2.99,6.201 8.969,6.648 0.58,0.045 1.115,0.088 1.695,0.088 h 15.17 v -3.881 h -15.303 c -3.393,0 -4.686,-0.848 -4.686,-2.9 v -20.078 h -5.846 v 20.123 z m -32.615,0.177 v -13.83 c 0,-3.525 2.498,-5.668 7.363,-6.336 0.535,-0.045 1.07,-0.09 1.561,-0.09 h 11.064 c 0.58,0 1.072,0.045 1.652,0.09 4.863,0.668 7.316,2.811 7.316,6.336 v 13.83 c 0,2.855 -1.025,4.373 -3.436,5.4 l 5.711,5.174 h -6.736 l -4.641,-4.193 -4.686,0.268 h -6.246 c -1.025,0 -2.186,-0.133 -3.391,-0.445 -3.701,-1.028 -5.531,-2.991 -5.531,-6.204 z m 6.291,-0.31 c 0,0.178 0.09,0.355 0.135,0.58 0.312,1.605 1.828,2.498 4.148,2.498 h 5.266 l -4.818,-4.373 h 6.736 l 4.238,3.838 c 0.805,-0.447 1.295,-1.072 1.473,-1.875 0.045,-0.178 0.045,-0.4 0.045,-0.58 v -13.252 c 0,-0.178 0,-0.355 -0.045,-0.535 -0.312,-1.516 -1.828,-2.363 -4.104,-2.363 h -8.791 c -2.588,0 -4.283,1.115 -4.283,2.898 z m 54.836,6.914 h 0.848 v -3.256 h 1.115 v -0.67 h -3.123 v 0.67 h 1.16 z m 6.469,0 h 0.803 v -3.926 h -1.203 l -0.982,2.678 -1.07,-2.678 h -1.16 v 3.926 h 0.758 v -2.988 h 0.045 l 1.115,2.988 h 0.58 l 1.115,-2.988 v 2.988 z"
         id="path832" />
    </g>
    <g
       transform="matrix(0.08725525,0,0,0.08725525,180.43559,15.15875)"
       id="g941">
      <path
         style="fill:#ffffff;fill-opacity:1"
         d="m 218.647,270.93 c -1.46,0 -2.91,-0.383 -4.19,-1.12 l -13.337,-7.896 c -1.992,-1.114 -1.02,-1.508 -0.363,-1.735 2.656,-0.93 3.195,-1.14 6.03,-2.75 0.298,-0.17 0.688,-0.11 0.993,0.07 l 10.246,6.08 c 0.37,0.2 0.895,0.2 1.238,0 l 39.95,-23.06 c 0.37,-0.21 0.61,-0.64 0.61,-1.08 v -46.1 c 0,-0.46 -0.24,-0.87 -0.618,-1.1 l -39.934,-23.04 c -0.37,-0.22 -0.86,-0.22 -1.23,0 l -39.926,23.04 c -0.387,0.22 -0.633,0.65 -0.633,1.09 v 46.1 c 0,0.44 0.24,0.86 0.62,1.07 l 10.94,6.32 c 5.94,2.97 9.57,-0.53 9.57,-4.05 v -45.5 c 0,-0.65 0.51,-1.15 1.16,-1.15 h 5.06 c 0.63,0 1.15,0.5 1.15,1.15 v 45.52 c 0,7.92 -4.32,12.47 -11.83,12.47 -2.31,0 -4.13,0 -9.21,-2.5 l -10.48,-6.04 c -2.59,-1.5 -4.19,-4.3 -4.19,-7.29 v -46.1 c 0,-3 1.6,-5.8 4.19,-7.28 l 39.99,-23.07 c 2.53,-1.43 5.89,-1.43 8.4,0 l 39.94,23.08 c 2.58,1.49 4.19,4.28 4.19,7.28 v 46.1 c 0,2.99 -1.61,5.78 -4.19,7.28 l -39.94,23.07 c -1.28,0.74 -2.73,1.12 -4.21,1.12"
         id="path885" />
      <path
         style="fill:#ffffff;fill-opacity:1"
         d="m 230.987,239.164 c -17.48,0 -21.145,-8.024 -21.145,-14.754 0,-0.64 0.516,-1.15 1.157,-1.15 h 5.16 c 0.57,0 1.05,0.415 1.14,0.978 0.78,5.258 3.1,7.91 13.67,7.91 8.42,0 12,-1.902 12,-6.367 0,-2.57 -1.02,-4.48 -14.1,-5.76 -10.94,-1.08 -17.7,-3.49 -17.7,-12.24 0,-8.06 6.8,-12.86 18.19,-12.86 12.79,0 19.13,4.44 19.93,13.98 0.03,0.33 -0.09,0.65 -0.31,0.89 -0.22,0.23 -0.53,0.37 -0.85,0.37 h -5.19 c -0.54,0 -1.01,-0.38 -1.12,-0.9 -1.25,-5.53 -4.27,-7.3 -12.48,-7.3 -9.19,0 -10.26,3.2 -10.26,5.6 0,2.91 1.26,3.76 13.66,5.4 12.28,1.63 18.11,3.93 18.11,12.56 0,8.7 -7.26,13.69 -19.92,13.69 m 48.66,-48.89 h 1.34 c 1.1,0 1.31,-0.77 1.31,-1.22 0,-1.18 -0.81,-1.18 -1.26,-1.18 h -1.38 z m -1.63,-3.78 h 2.97 c 1.02,0 3.02,0 3.02,2.28 0,1.59 -1.02,1.92 -1.63,2.12 1.19,0.08 1.27,0.86 1.43,1.96 0.08,0.69 0.21,1.88 0.45,2.28 h -1.83 c -0.05,-0.4 -0.33,-2.6 -0.33,-2.72 -0.12,-0.49 -0.29,-0.73 -0.9,-0.73 h -1.51 v 3.46 h -1.67 z m -3.57,4.3 c 0,3.58 2.89,6.48 6.44,6.48 3.58,0 6.47,-2.96 6.47,-6.48 0,-3.59 -2.93,-6.44 -6.48,-6.44 -3.5,0 -6.44,2.81 -6.44,6.43 m 14.16,0.03 c 0,4.24 -3.47,7.7 -7.7,7.7 -4.2,0 -7.7,-3.42 -7.7,-7.7 0,-4.36 3.58,-7.7 7.7,-7.7 4.15,0 7.69,3.35 7.69,7.7"
         id="path887" />
      <path
         style="fill:#ffffff;fill-rule:evenodd"
         d="m 94.936,90.55 c 0,-1.84 -0.97,-3.53 -2.558,-4.445 L 50.022,61.735 c -0.715,-0.42 -1.516,-0.64 -2.328,-0.67 h -0.438 c -0.812,0.03 -1.613,0.25 -2.34,0.67 L 2.562,86.105 C 0.984,87.025 0,88.715 0,90.555 l 0.093,65.64 c 0,0.91 0.47,1.76 1.27,2.21 0.78,0.48 1.76,0.48 2.54,0 l 25.18,-14.42 c 1.59,-0.946 2.56,-2.618 2.56,-4.44 V 108.88 c 0,-1.83 0.97,-3.52 2.555,-4.43 l 10.72,-6.174 c 0.796,-0.46 1.67,-0.688 2.56,-0.688 0.876,0 1.77,0.226 2.544,0.687 l 10.715,6.172 c 1.586,0.91 2.56,2.6 2.56,4.43 v 30.663 c 0,1.82 0.983,3.5 2.565,4.44 l 25.164,14.41 c 0.79,0.47 1.773,0.47 2.56,0 0.776,-0.45 1.268,-1.3 1.268,-2.21 z m 199.868,34.176 c 0,0.457 -0.243,0.88 -0.64,1.106 l -14.548,8.386 c -0.395,0.227 -0.883,0.227 -1.277,0 l -14.55,-8.386 c -0.4,-0.227 -0.64,-0.65 -0.64,-1.106 V 107.93 c 0,-0.458 0.24,-0.88 0.63,-1.11 l 14.54,-8.4 c 0.4,-0.23 0.89,-0.23 1.29,0 l 14.55,8.4 c 0.4,0.23 0.64,0.652 0.64,1.11 z m 3.93,-124.402 c -0.794,-0.442 -1.76,-0.43 -2.544,0.027 -0.78,0.46 -1.262,1.3 -1.262,2.21 v 65 c 0,0.64 -0.34,1.23 -0.894,1.55 -0.55,0.32 -1.235,0.32 -1.79,0 L 281.634,63 c -1.58,-0.914 -3.526,-0.914 -5.112,0 l -42.37,24.453 c -1.583,0.91 -2.56,2.6 -2.56,4.42 v 48.92 c 0,1.83 0.977,3.51 2.56,4.43 l 42.37,24.47 c 1.582,0.91 3.53,0.91 5.117,0 l 42.37,-24.48 c 1.58,-0.92 2.56,-2.6 2.56,-4.43 V 18.863 c 0,-1.856 -1.01,-3.563 -2.63,-4.47 z m 141.093,107.164 c 1.574,-0.914 2.543,-2.602 2.543,-4.422 V 91.21 c 0,-1.824 -0.97,-3.507 -2.547,-4.425 l -42.1,-24.44 c -1.59,-0.92 -3.54,-0.92 -5.13,0 l -42.36,24.45 c -1.59,0.92 -2.56,2.6 -2.56,4.43 v 48.9 c 0,1.84 0.99,3.54 2.58,4.45 l 42.09,23.99 c 1.55,0.89 3.45,0.9 5.02,0.03 l 25.46,-14.15 c 0.8,-0.45 1.31,-1.3 1.31,-2.22 0,-0.92 -0.49,-1.78 -1.29,-2.23 l -42.62,-24.46 c -0.8,-0.45 -1.29,-1.3 -1.29,-2.21 v -15.34 c 0,-0.916 0.48,-1.76 1.28,-2.216 l 13.26,-7.65 c 0.79,-0.46 1.76,-0.46 2.55,0 l 13.27,7.65 c 0.79,0.45 1.28,1.3 1.28,2.21 v 12.06 c 0,0.91 0.49,1.76 1.28,2.22 0.79,0.45 1.77,0.45 2.56,-0.01 z m 0,0"
         id="path889" />
      <path
         style="fill:#ffffff;fill-opacity:1;fill-rule:evenodd"
         d="m 394.538,105.2 c 0.3,-0.177 0.676,-0.177 0.98,0 l 8.13,4.69 c 0.304,0.176 0.49,0.5 0.49,0.85 v 9.39 c 0,0.35 -0.186,0.674 -0.49,0.85 l -8.13,4.69 c -0.304,0.177 -0.68,0.177 -0.98,0 l -8.125,-4.69 c -0.31,-0.176 -0.5,-0.5 -0.5,-0.85 v -9.39 c 0,-0.35 0.18,-0.674 0.49,-0.85 z m 0,0"
         id="path891" />
      <g
         clip-path="url(#a)"
         transform="translate(-78.306,-164.016)"
         id="g895">
        <path
           style="fill:url(#linearGradient1085);fill-opacity:1"
           d="m 331.363,246.793 -118.715,-58.19 -60.87,124.174 118.712,58.193 z m 0,0"
           id="path893" />
      </g>
      <g
         clip-path="url(#c)"
         transform="translate(-78.306,-164.016)"
         id="g899">
        <path
           style="fill:url(#linearGradient1225);fill-opacity:1"
           d="m 144.07,264.004 83.825,113.453 110.86,-81.906 -83.83,-113.45 z m 0,0"
           id="path897" />
      </g>
      <g
         clip-path="url(#e)"
         transform="translate(-78.306,-164.016)"
         id="g903">
        <path
           style="fill:url(#f);fill-opacity:1"
           d="m 197.02,225.934 v 107.43 h 91.683 v -107.43 z m 0,0"
           id="path901" />
      </g>
    </g>
    <g
       style="stroke:#ffffff;stroke-opacity:1"
       transform="matrix(0.00694218,0,0,0.00694218,145.24233,14.414089)"
       id="g968">
      <circle
         style="fill:#ffffff;fill-opacity:1;stroke:#ffffff;stroke-opacity:1"
         class="st1"
         cx="1806.5"
         cy="1807.1"
         r="302.60001"
         id="circle947" />
      <path
         style="fill:none;stroke:#ffffff;stroke-width:144.74560547;stroke-miterlimit:10;stroke-opacity:1"
         class="st2"
         d="m 1806.5,1191.9 c 406.2,0 783.6,58.3 1068.1,156.2 342.8,118 553.6,296.9 553.6,458.9 0,168.8 -223.4,358.9 -591.5,480.8 -278.3,92.2 -644.6,140.4 -1030.2,140.4 -395.4,0 -769.7,-45.2 -1051.2,-141.4 C 399.2,2165.1 184.7,1972.6 184.7,1807 c 0,-160.7 201.3,-338.2 539.3,-456 285.6,-99.5 672.3,-159.1 1082.5,-159.1 z"
         id="path949" />
      <path
         style="fill:none;stroke:#ffffff;stroke-width:144.74560547;stroke-miterlimit:10;stroke-opacity:1"
         class="st2"
         d="m 1271,1501.3 c 202.9,-351.9 442,-649.7 669,-847.2 273.5,-238 533.8,-331.2 674.1,-250.3 146.2,84.3 199.3,372.8 121,752.7 -59.2,287.2 -200.4,628.5 -393.1,962.6 -197.5,342.5 -423.7,644.2 -647.6,840 -283.3,247.7 -557.3,337.3 -700.7,254.6 -139.2,-80.3 -192.4,-343.3 -125.7,-695 56.4,-297.4 198,-662.1 403,-1017.4 z"
         id="path951" />
      <path
         style="fill:none;stroke:#ffffff;stroke-width:144.74560547;stroke-miterlimit:10;stroke-opacity:1"
         class="st2"
         d="M 1271.5,2119.8 C 1068,1768.2 929.4,1412.4 871.6,1117.1 802,761.3 851.2,489.2 991.4,408.1 c 146.1,-84.6 422.5,13.5 712.5,271 219.3,194.7 444.4,487.5 637.6,821.3 198.1,342.2 346.6,688.8 404.3,980.5 73.1,369.2 13.9,651.3 -129.4,734.2 -139.1,80.5 -393.5,-4.7 -664.9,-238.2 -229.2,-197.3 -474.5,-502.1 -680,-857.1 z"
         id="path953" />
    </g>
  </g>
  <style
     id="style943">.st0{fill:#222}.st1{fill:#00d8ff}.st2{fill:none;stroke:#00d8ff;stroke-width:144.7456;stroke-miterlimit:10}</style>
</svg>
